<svg width="1459" height="542" viewBox="0 0 1459 542" fill="none" xmlns="http://www.w3.org/2000/svg">
<path d="M50 23.0001L325 518L600 23.0001H471.667L325 322.75L178.333 23.0001H50Z" fill="#3FB984"/>
<path d="M178.333 23.0001L325 322.75L471.667 23.0001H370.833L325 130.708L279.167 23.0001H178.333Z" fill="#30475E"/>
<path d="M672 0H732V254L844.5 274L960 254H1019.5V540H960V331L844.5 305.5L732 331V540H672V0Z" fill="#3FB984"/>
<path d="M844.5 305.5L732 331V540H777.5V360.5L844.5 344L914 360.5V540H960V331L844.5 305.5Z" fill="#30475E"/>
<path d="M732 0V254L844.5 274L960 254V208L914 213L844.5 226L777.5 213L778 0H732Z" fill="#30475E"/>
<path d="M960 254H1019.5V0H960V208V254Z" fill="#3FB984"/>
<path d="M960 208V0H914V213L960 208Z" fill="#30475E"/>
<path d="M1091.5 2H1458.5L1458.06 48H1139.94V251H1458.06L1458.5 295H1139.94V498H1458.5V542H1091.5V2Z" fill="#3FB984"/>
<path d="M1458.06 48H1139.94V251H1458.06L1458.5 213H1174.5V86.0002H1458.5L1458.06 48Z" fill="#30475E"/>
<path d="M1458.5 295H1139.94V498H1458.5L1458.94 460H1174.94V333H1458.94L1458.5 295Z" fill="#30475E"/>
</svg>
